<svg width="1080" height="1080" viewBox="0 0 1080 1080" xmlns="http://www.w3.org/2000/svg"><rect width="1080" height="1080" fill="#000000"/><path d="M 0,1080 C 0,1080 0,180 0,180 C 27.452213589838465,177.39800221975582 54.90442717967693,174.79600443951168 98,191 C 141.09557282032307,207.20399556048832 199.83450487113078,242.2139844617092 242,247 C 284.1654951288692,251.7860155382908 309.7575533357998,226.34805771365149 343,221 C 376.2424466642002,215.65194228634851 417.13528178567014,230.39378468368483 464,206 C 510.86471821432986,181.60621531631517 563.7013195215194,118.07680355160932 604,115 C 644.2986804784806,111.92319644839068 672.0594401282525,169.2990011098779 709,166 C 745.9405598717475,162.7009988901221 792.0609199654706,98.72719200887903 837,112 C 881.9390800345294,125.27280799112097 925.6968800098656,215.79223085460598 966,240 C 1006.3031199901344,264.207769145394 1043.1515599950671,222.103884572697 1080,180 C 1080,180 1080,1080 1080,1080 Z" fill="#263f40" opacity="0.09999999999999999"/><path d="M 0,1080 C 0,1080 0,360 0,360 C 45.158071278826,336.2254778641016 90.316142557652,312.4509557282032 129,305 C 167.683857442348,297.5490442717968 199.893501048218,306.42165495128876 239,324 C 278.106498951782,341.57834504871124 324.1098532494758,367.862424466642 365,377 C 405.8901467505242,386.137575533358 441.6670859538784,378.1286471821433 477,363 C 512.3329140461216,347.8713528178567 547.2218029350105,325.62298680478483 593,313 C 638.7781970649895,300.37701319521517 695.4457023060796,297.3794055987174 735,318 C 774.5542976939204,338.6205944012826 796.9953878406708,382.8593908003453 836,400 C 875.0046121593292,417.1406091996547 930.5727463312369,407.18303119990134 974,396 C 1017.4272536687631,384.81696880009866 1048.7136268343816,372.40848440004936 1080,360 C 1080,360 1080,1080 1080,1080 Z" fill="#263f40" opacity="0.19999999999999998"/><path d="M 0,1080 C 0,1080 0,540 0,540 C 38.77277099519053,570.7963990627698 77.54554199038105,601.5927981255396 112,602 C 146.45445800961895,602.4072018744604 176.5906030336663,572.4252065606116 219,576 C 261.4093969663337,579.5747934393884 316.0920458749537,616.7063756320139 362,600 C 407.9079541250463,583.2936243679861 445.0412134665187,512.7492909113332 487,495 C 528.9587865334813,477.25070908866684 575.7431002589716,512.2964607226538 610,518 C 644.2568997410284,523.7035392773462 665.9863854975953,500.0648661980516 704,511 C 742.0136145024047,521.9351338019484 796.3113577506475,567.44407448514 842,577 C 887.6886422493525,586.55592551486 924.7681834998149,560.1588358613885 963,548 C 1001.2318165001851,535.8411641386115 1040.6159082500926,537.9205820693057 1080,540 C 1080,540 1080,1080 1080,1080 Z" fill="#263f40" opacity="0.3"/><path d="M 0,1080 C 0,1080 0,720 0,720 C 41.11668516463189,712.5572080404489 82.23337032926378,705.1144160808979 117,693 C 151.76662967073622,680.8855839191021 180.18320384757678,664.0995437168579 218,673 C 255.81679615242322,681.9004562831421 303.03381428042917,716.4874090516711 352,727 C 400.96618571957083,737.5125909483289 451.6815390307065,723.9508200764583 495,709 C 538.3184609692935,694.0491799235417 574.2400295967444,677.709310642496 607,695 C 639.7599704032556,712.290689357504 669.3583425823159,763.2119373535578 707,767 C 744.6416574176841,770.7880626464422 790.3266000739918,727.4429399432729 832,699 C 873.6733999260082,670.5570600567271 911.3352571217167,657.0163028733506 952,663 C 992.6647428782833,668.9836971266494 1036.3323714391418,694.4918485633248 1080,720 C 1080,720 1080,1080 1080,1080 Z" fill="#263f40" opacity="0.39999999999999997"/><path d="M 0,1080 C 0,1080 0,900 0,900 C 43.10726353434454,874.926526082131 86.21452706868908,849.8530521642618 129,869 C 171.78547293131092,888.1469478357382 214.24915525958812,951.5143174250832 250,965 C 285.7508447404119,978.4856825749168 314.7888518929584,942.0896781354049 358,905 C 401.2111481070416,867.9103218645951 458.5954371685781,830.1269700332964 497,845 C 535.4045628314219,859.8730299667036 554.8293994327291,927.4024417314096 595,936 C 635.1706005672709,944.5975582685904 696.0869651005056,894.2632630410656 736,898 C 775.9130348994944,901.7367369589344 794.8227401652485,959.5445061043285 829,948 C 863.1772598347515,936.4554938956715 912.6220742385003,855.5587125416205 957,836 C 1001.3779257614997,816.4412874583795 1040.6889628807498,858.2206437291898 1080,900 C 1080,900 1080,1080 1080,1080 Z" fill="#263f40" opacity="0.49999999999999994"/></svg>